<svg xmlns="http://www.w3.org/2000/svg" width="237pt" height="237pt" viewBox="0 0 237.000000 237.000000"><path d="M1480 2062 c-91 -8 -207 -62 -365 -170 -60 -41 -119 -75 -130 -74 -11 1 -98 15 -193 33 -133 24 -176 29 -185 20 -9 -9 -23 0 -60 41 l-49 53 41 -55 c30 -42 37 -58 29 -68 -6 -7 -13 -25 -14 -40 -1 -15 -10 -110 -20 -212 l-17 -185 -58 -63 c-179 -192 -256 -355 -219 -466 16 -50 35 -66 77 -66 38 0 389 62 631 112 l154 31 36 -40 c20 -22 54 -46 75 -53 33 -10 38 -16 33 -34 -4 -11 -9 -34 -13 -49 -3 -17 -15 -32 -29 -38 -13 -4 -24 -15 -24 -24 0 -8 -4 -15 -10 -15 -5 0 -10 -18 -10 -39 0 -22 -4 -43 -10 -46 -6 -4 -10 -55 -10 -118 0 -120 -14 -358 -26 -444 l-7 -53 255 0 255 0 6 122 c3 68 12 147 20 175 21 78 9 97 -68 103 l-60 5 0 113 c0 96 -3 115 -17 126 -10 7 -18 18 -18 24 0 17 22 62 31 62 6 0 136 -71 231 -126 4 -3 9 0 12 5 4 5 -48 39 -114 76 -66 37 -120 72 -120 80 0 7 -9 15 -20 18 -19 5 -20 14 -20 145 l0 139 -47 7 c-25 3 -55 13 -64 22 -17 15 -17 17 1 43 10 14 83 202 161 418 156 432 159 447 98 478 -36 19 -102 31 -149 27z m-791 -252 c9 0 2 -13 -19 -35 l-35 -36 -7 28 c-11 39 -2 57 25 49 12 -3 29 -6 36 -6z m179 -50 l44 -11 -58 -44 c-44 -32 -62 -41 -72 -33 -17 15 -54 -19 -47 -43 4 -11 -5 -26 -26 -43 -17 -15 -33 -25 -35 -23 -2 2 -8 24 -12 49 -9 43 -8 45 22 58 17 8 51 35 76 60 25 26 50 46 55 44 6 -2 30 -8 53 -14z m-262 -268 c-15 -15 -16 -11 -16 49 0 84 13 97 24 24 7 -47 6 -60 -8 -73z m664 -514 c0 -80 -8 -86 -69 -53 -50 27 -65 45 -38 45 7 0 33 13 57 29 25 16 46 30 48 30 1 1 2 -23 2 -51z" transform="matrix(.1 0 0 -.1 0 237)"/></svg>
