<svg xmlns="http://www.w3.org/2000/svg" viewBox="0 0 960 489"><path fill="#fff" d="M753.6 413c-5 0-10-1-14.6-2.8-19.7-7.5-30-29-24.7-48.7h-.2l1.4-3.5 100-260c1.6-3.8 1-13 .2-18-.2-1.3-.2-2.4 0-3.5l.2-.2c0-.2 0-.4.2-.6 1.6-4.2 6.5-6.3 14.5-6.3 9.6 0 23 3 36.5 8.2 11.4 4.4 21.8 10 29 15.4 8.7 6.5 12 12.3 10.2 17.3l-.3.6h-.2c-.5 1-1.2 2-2 2.6-4.5 4-11 10.5-12 13.5L790.3 390.8h-.2c-7 13.5-21 22.2-36.6 22.2zm-31.3-53.3l-.3.7c-6.4 17.2 2.3 36.6 19.5 43.2 4 1.5 8 2.2 12 2.2 14 0 26.2-8.3 31.3-21.3l.4-1 99.6-258.8c2-5.6 12-14.5 14-16.3l.2-.2c.2 0 .3-.2.3-.3v-.2c.2-.7-.7-3.8-7.7-9.2-6.7-5-16.4-10.2-27.3-14.4-12.6-5-25.4-7.8-34-7.8-5.7 0-7.6 1.2-8 1.8v.5c.3 1.6 2.2 15-.4 21.8l-99.7 259.2z"/><path fill="#C00" d="M850.4 195s-13.8 16-26.4 21.6-22 4.2-33.2 10.8-17 15.8-17 15.8l-46 119.7c-5 13.4 2.4 29.2 16 34.5 13.8 5.3 29.3-1.7 34.6-15l72-187.5zM804 264c2.3-1 5 0 5.8 2.3 1 2.2 0 4.8-2.2 5.7-2.2 1-4.8 0-5.7-2.2-1.2-2.2 0-4.8 2-5.7zm-18.4-19.6c1.5-.6 3.2 0 3.8 1.5.6 1.4 0 3-1.5 3.7-1.6.6-3.3 0-4-1.5-.5-1.5.2-3.2 1.6-3.8zM765.3 312c-2.2 1-4.8 0-5.7-2-1-2.3 0-5 2.2-5.8 2.2-1 4.8 0 5.7 2.2 1 2.2 0 4.7-2.2 5.7zm4-15.6c-1.7-4 0-9 4.2-10.8 4-1.8 9 0 10.8 4 1.8 4.2 0 9-4 11-4.3 1.7-9 0-11-4.2zM780 338c1.5-.7 3.2 0 3.8 1.4.6 1.5 0 3.2-1.5 3.8-1.4.6-3 0-3.7-1.5-.6-1.4 0-3 1.5-3.8z"/><ellipse fill="#fff" cx="859.8" cy="95.7" transform="rotate(-68.96 859.816 95.726)" rx="7.3" ry="27.8"/><path fill="#fff" d="M250.5 228.2c4.4 3.5 12.4 1.5 17.8-4.4 5.6-6.2 6.5-14 2-17.7-4.3-3.4-12.3-1.4-17.7 4.8-5.7 6.3-6.7 14-2 17.4zm-13 11.5c-1.3 0-3.3 2-1.6 3 2.3.8 3.4 2.8 3.4 5.8-2 12-17 26-23 30.7-1.6 1.5.5 4.7 2 3.5 3.2-2.6 10-8 15.6-15-9 20.4-27 46.6-33.7 55.8-26.6 37-67 70.8-94.8 70.8-22.2 0-41-15-45-37.2-.4-2.3-3.6-2.8-3 .4 5 30.4 28.4 42 56.7 42 31 0 67.4-22.4 87.4-45.3 32.4-37 53.5-79.8 47.8-104-2.2-9-8.5-10.6-12-10.3zm199 81c8.6-2.2 15.7-7 15.7-14.3 0-.7-1.5-.7-1.5 0 0 4.4-5 8-10.6 9-13 2-39.4-13.6-51.8-29.6 13.2 5 40.4-2.3 53.2-11.4 11.8-8.5 16.5-18 17.5-25.7 1.4-12.6-12.5-20-31.7-12.6-12.4 5-27.2 16-42.5 36.4 16.2-27 48-70.5 79.4-98.5 38-34 60.2-27.5 26 8.4-14 14.7-40.7 34-59 42.2-5.7 2.4-3 5.6 1 3.8 19.6-8.5 45.5-26.3 61.2-41 46.3-44.5 7.7-78-43.7-31-34.8 32.2-57.6 65.8-77.3 109.4-6.8 8.2-11.8 15-18 20.4-.8.6-1.4 1.3-2 2-17 14.5-43.7 34.2-60.4 34.5-11.8.3-16.8-8.5-14.7-20 3.2-18 22-39.3 37.8-46.7 20.8-9.4 33 8.8 5.7 23.6-10.3 5.3-22.8 8.2-27.8 8.2-6 0-5.4 2.4-.4 2.6 8.2.3 21.6-3.2 30.4-7.4 27.8-13.2 29.5-38-.6-39-32.8-1-72 27-71.7 62 .3 16 13 24.6 30.4 24.6 29-.3 55-22.4 76-41.7 3-2.6 6-5.4 9-8.3-7.4 19-11.2 36.3-9.4 49.2 1.2 9.3 6.5 13.7 10.6 17.3 1 .6 2.6 0 1.5-1.8-6.2-7.4-4.4-29.3 4-50.4 7.2 14 35 32 64 25.6zM402 259c34-30.3 47.2-3 25.7 13.3-11.2 8.5-33.4 15-40.4 11l-1.4-1c-1-1.5-1.8-3-2.4-4.4 5.6-7 12-13 18.6-19zm188-34.2c13.6 1.5 8-15-5.8-11-6.2 2-12 13.6-16.5 24-13.5 20.4-36.3 48-52.3 62.5-14 12-27.2 15.3-11.2-7.4 6.5-9 14.7-19 19.5-28.6 11.2-24.5-12.7-35.4-32-20.7-11 8.5-26.2 26.3-38 36-3.2 2.6-2.4 6.5 1 3.8 9.3-7.6 26-25 40-35.4 11.8-9.2 16.5-3.3 9.7 4.3-9.4 11-26 29.8-30 42-6 18 1 26 12.8 26 16.2 0 40.4-25.5 56.7-45.5 5.2-6.8 11-14.7 16-22.4-14 27.4-28.8 55.2-47 80.2-26 35.4-58.6 62-89.3 62-22.2 0-41.3-15-45.4-37.2-.3-2.4-3.2-3-3 .3 5 30.4 28.5 42 56.8 42 31 0 61-18 81.8-40C556 315 561 265 574 237c6-12.3 11.7-13 16-12.3zm171.7-43c6.2-10.7 6-19-8.5-19-11 .3-30.7 8-39.8 15-2 2-1.2 3.2 1.5 2 1.7-.5 3.7-1.7 5.8-2.5 10.3-5.6 6.2 6.2 3.8 10.6-12.4 21.6-34.2 52-45.7 67-5.6 7.4-11.8 14.8-18 21-11 10.6-33 29.3-49.4 35.5-53.8 20 14.7-71.4 20.4-78.7 12.7-16 41-43.6 49.5-57.5 6.2-10.5 6-18.8-8.5-18.8-11 .3-30.7 8-39.8 15-2 2-1.2 3.2 1.5 2 1.8-.5 3.8-1.7 6-2.5 10.2-5.6 6 6.2 3.7 10.6-12.4 21.6-34.2 52-45.7 67-9.4 12.6-21 25.4-29.8 32.4-3.6 3-1.6 5.6 2 3.2 3.2-2.2 8-7 13.2-12.5-9.7 19.5-17.8 47 8 50 21.8 3 47.8-19.3 64.6-35.8 1.8-1.8 4-3.8 6-6l1.5-1.5c-9.7 19.5-17.7 46.8 8 50 28 3.8 63-34 76.4-47.7 2.6-2.6 1.8-7-2.6-2.6-7.8 8-34.7 32.6-54.3 40-53.8 20 14.7-71.4 20.4-78.7 12.8-16 41.2-43.7 49.7-57.7z"/></svg>
