<svg xmlns="http://www.w3.org/2000/svg" width="233" height="62.7"><defs><clipPath id="a"><path d="M0 501.6V0h1863.8v501.6H0z"/></clipPath></defs><g clip-path="url(#a)" transform="matrix(.13 0 0 -.13 0 62.7)"><path fill="#fff" fill-rule="evenodd" d="M279.5 235c0 5.5-3 10.4-7.5 13l-124.7 72c-2 1-4.5 1.8-7 2h-1.2c-2.3-.2-4.6-1-6.8-2L7.5 248C3 245.5 0 240.6 0 235L.3 41.8c0-2.7 1.4-5.2 3.7-6.5 2.3-1.4 5.2-1.4 7.5 0l74 42.4c4.8 2.8 7.7 7.7 7.7 13v90.4c0 5.5 2.8 10.4 7.5 13l31.5 18.3c2.4 1.3 5 2 7.6 2 2.5 0 5.2-.7 7.5-2l31.5-18.2c4.7-2.6 7.5-7.5 7.5-13V91c0-5.4 3-10.3 7.6-13l74-42.5c2.3-1.4 5.2-1.4 7.5 0 2.3 1.3 3.7 3.8 3.7 6.5l.3 193.2M933.7 134.4c0-1.3-.7-2.6-2-3.2L889 106.5c-1.2-.7-2.6-.7-3.8 0l-42.8 24.7c-1.2.6-2 2-2 3.2V184c0 1.2.8 2.5 2 3l42.8 25c1.2.6 2.6.6 3.8 0l42.8-25c1.2-.5 2-1.8 2-3v-49.6zm11.6 366.2c-2.4 1.3-5.2 1.3-7.5 0-2.3-1.4-3.7-4-3.7-6.5V302.8c0-2-1-3.6-2.6-4.5-1.6-1-3.6-1-5.2 0l-31.3 18c-4.7 2.6-10.4 2.6-15 0L755 244c-4.7-2.7-7.6-7.7-7.6-13V87c0-5.5 3-10.4 7.6-13L880 2c4.6-2.7 10.3-2.7 15 0l124.7 72c4.7 2.8 7.5 7.7 7.5 13v359c0 5.5-3 10.6-7.7 13.2l-74.2 41.4M1391.5 185.2c4.7 2.7 7.5 7.6 7.5 13v35c0 5.3-2.8 10.2-7.5 13l-124 72c-4.6 2.6-10.3 2.6-15 0l-124.7-72c-4.6-2.8-7.5-7.8-7.5-13V89c0-5.5 3-10.5 7.6-13.2l123.8-70.6c4.6-2.6 10.2-2.6 14.8 0l75 41.6c2.3 1.3 3.8 3.8 3.8 6.5s-1.4 5.2-3.8 6.6L1216 132c-2.2 1.5-3.6 4-3.6 6.7v45c0 2.8 1.4 5.2 3.7 6.6l39.2 22.5c2.3 1.4 5.2 1.4 7.5 0l39-22.5c2.4-1.4 3.8-3.8 3.8-6.5v-35.5c0-2.7 1.5-5.2 3.8-6.6 2.4-1.3 5.2-1.3 7.6 0l74.5 43.5"/><path fill="#83cd29" fill-rule="evenodd" d="M506.3 319c4.7 2.5 10.4 2.5 15 0l124.8-72c4.7-2.8 7.6-7.8 7.6-13.2v-144c0-5.4-3-10.4-7.5-13l-124.6-72c-4.7-2.8-10.4-2.8-15 0l-124.8 72c-4.7 2.6-7.5 7.6-7.5 13v144c0 5.4 3 10.4 7.6 13l124.7 72"/><path fill="#83cd29" d="M1633.7 2.6c-4.3 0-8.6 1.2-12.3 3.3L1582 29c-5.7 3.3-3 4.4-1 5 8 2.8 9.5 3.4 17.8 8.2 1 .5 2 .3 3-.3l30-17.8c1.2-.6 2.7-.6 3.7 0l117.6 68c1.2.5 2 1.8 2 3V231c0 1.3-.8 2.6-2 3.3L1635.7 302c-1 .7-2.6.7-3.7 0l-117.6-67.8c-1-.6-2-2-2-3.2V95.3c0-1.3 1-2.5 2-3l32.2-18.8c17.5-8.7 28.2 1.6 28.2 12v134c0 1.8 1.5 3.3 3.4 3.3h15c1.8 0 3.3-1.5 3.3-3.4v-134c0-23.3-12.7-36.7-34.8-36.7-6.8 0-12 0-27 7.4l-31 17.8c-7.5 4.4-12.3 12.7-12.3 21.5V231c0 8.8 4.8 17 12.4 21.5l117.6 68c7.4 4 17.3 4 24.7 0l117.7-68c7.6-4.4 12.3-12.7 12.3-21.5V95.3c0-8.8-4.7-17-12.3-21.5L1646 5.8c-3.7-2-8-3.2-12.3-3.2"/><path fill="#83cd29" d="M1670 96c-51.4 0-62.2 23.8-62.2 43.6 0 2 1.5 3.4 3.4 3.4h15.2c1.7 0 3-1.2 3.4-3 2.3-15.4 9-23.2 40.2-23.2 24.8 0 35.4 5.6 35.4 18.8 0 7.5-3 13.2-41.5 17-32.3 3-52.2 10.2-52.2 36 0 23.7 20 37.8 53.5 37.8 37.7 0 56.3-13 58.7-41 0-1-.2-2-1-2.7-.5-.7-1.4-1-2.4-1h-15.2c-1.6 0-3 1-3.3 2.6-3.6 16.3-12.5 21.5-36.7 21.5-27 0-30.2-9.5-30.2-16.5 0-8.6 3.8-11 40.4-16 36-4.7 53.3-11.4 53.3-37 0-25.5-21.4-40.2-58.7-40.2M1832.2 320v-3.4h-10v-25.8h-4v25.8h-9.7v3.5h23.7M1835.7 320h5.7l8.4-24.6 8.4 24.7h5.7V291h-4V311l.2 4.5-8.4-24.7h-4l-8.4 24.7v-1-3.2V291h-3.7V320"/><path fill="#83cd29" fill-rule="evenodd" d="M1258.2 192c1 .4 2 .4 3 0l24-14c.7-.4 1.3-1.4 1.3-2.4V148c0-1-.6-2-1.4-2.5l-24-13.8c-.8-.6-2-.6-2.8 0l-24 13.8c-.8.5-1.3 1.4-1.3 2.5v27.6c0 1 .4 2 1.3 2.5l24 14"/></g></svg>
