<svg xmlns="http://www.w3.org/2000/svg" viewBox="0 0 570 720"><path d="M158.4 1.7c-3.6 0-7.5 1.4-12 5C135.6 2.3 125 1 115.7 9.4c-14.5-2-19.2 2-22.8 6.5-3.2 0-24-3.3-33.3 10.8C36 24 28.4 40.8 37 56.5c-5 7.5-10 15 1.3 29.3-4 8-1.5 16.6 8 27-2.5 11.3 2.4 19.2 11.2 25.4-1.6 15.4 14 24.3 18.8 27.5 1.8 9 5.5 17.4 23.5 22 3 13.4 13.8 15.7 24.2 18.5-34.5 20-64.2 46.5-64 111.4l-5 9c-39.7 24-75.3 101.6-19.6 164.5 3.7 19.8 9.8 34 15.2 49.6 8.2 63.2 61.2 92.7 75.2 96.2 20.6 15.7 42.4 30.5 72 41 28 28.6 58 39.6 88.4 39.6h1.4c30.3 0 60.5-11 88.4-39.7 29.6-10.4 51.4-25.2 72-41 14-3.4 67-33 75.2-96 5.4-15.7 11.5-30 15.2-49.6 55.7-62.8 20-140.3-19.6-164.4l-5-9c.2-65-29.5-91.3-64-111.4 10.4-2.8 21.2-5 24.2-18.5 18-4.6 21.7-13 23.5-22 4.7-3.2 20.4-12 18.8-27.5 8.8-6.2 13.7-14 11.2-25.3 9.5-10.6 12-19.2 8-27.2 11.3-14.4 6.3-21.8 1.4-29.3 8.4-15.7 1-32.5-23-29.7-9.3-14-30-11-33.2-10.8-3.5-4.5-8.2-8.4-22.7-6.5-9.3-8.5-19.8-7-30.7-3-12.8-10-21.3-2-31 1.2-15.6-5-19.2 1.8-26.8 4.7-17-3.6-22.2 4.2-30.3 12.4h-9.5c-25.6 15-38.3 45.7-42.8 61.5-4.6-15.8-17.3-46.6-43-61.6h-9.4c-8.2-8-13.3-16-30.3-12.3-7.6-3-11.2-9.8-26.8-4.7-6.4-2-12.2-6.3-19-6z"/><path fill="#75a928" d="M107.4 68c68 35 107.4 63.4 129 87.6-11 44.4-68.8 46.4-90 45.2 4.4-2 8-4.5 9.3-8.2-5.3-3.7-24-.4-37.3-7.8 5-1 7.4-2 9.8-5.7-12.4-4-25.8-7.3-33.6-14 4.2.2 8.2 1 13.7-2.7-11-6-23-10.8-32.2-20 6 0 12 0 14-2-10.3-6.4-19-13.4-26-21 8 1 11.4 0 13.4-1.3-7.7-8-17.4-14.6-22-24.3 6 2 11.4 3 15.3-.2-2.6-5.8-13.8-9.3-20.3-23 6.3.5 13 1.3 14.3 0-3-12-8-18.7-12.8-25.6 13.3-.3 33.7 0 32.8-1.2l-8.3-8.5c13-3.5 26.6.6 36.3 3.7 4.4-3.5 0-8-5.4-12.3 11.2 1.5 21.3 4 30.4 7.6 4.8-4.4-3.2-8.8-7-13.2 17.2 3.3 24.5 8 31.7 12.5 5.3-5 .3-9.3-3.2-13.7 13 4.8 19.7 11 26.7 17.2 2.4-3.3 6-5.6 1.7-13.4C197 29 204 35.2 209 42.2c5.7-3.6 3.4-8.6 3.4-13.2 9.6 7.8 15.7 16 23.2 24.2 1.5-1 2.8-4.8 4-10.6 23 22.2 55.2 78 8.3 100.3-40-33-87.8-57-140.6-75zM468 68c-68 35-107.5 63.4-129.2 87.6 11 44.4 69 46.4 90 45.2-4.3-2-8-4.5-9-8.2 5.2-3.7 24-.4 37-7.8-5-1-7.3-2-9.7-5.7 12.5-4 26-7.3 33.8-14-4.3.2-8.2 1-13.8-2.7 11-6 23-10.8 32.2-20-5.7 0-12 0-13.7-2 10-6.4 18.7-13.4 25.8-21-8 1-11.4 0-13.4-1.3 7.6-8 17.4-14.6 22-24.3-6 2-11.4 3-15.4-.2 2.6-5.8 13.8-9.3 20.3-23-6.4.5-13 1.3-14.4 0 3-12 8-18.7 12.8-25.6-13.4-.3-33.8 0-33-1.2l8.4-8.5c-13-3.5-26.5.6-36.3 3.6-4.4-3.5 0-8 5.4-12.3-11.2 1.4-21.3 4-30.4 7.5-5-4.4 3-8.8 7-13-17.2 3-24.6 7.7-31.8 12.3-5.3-5-.3-9.3 3.2-13.7-13 4.8-19.7 11-26.7 17.2-2.4-3.3-6-5.6-1.6-13.4-9.3 5.3-16.2 11.6-21.4 18.6-5.7-3.6-3.4-8.6-3.4-13.2-9.7 7.8-15.8 16-23.3 24.2-1.5-1-2.8-4.8-4-10.6-22.8 22.2-55.2 78-8.3 100.3 40-33 87.7-57 140.5-75z"/><path fill="#bc1142" d="M370 520.4a81.4 75 0 1 1-162.8 0 81.4 75 0 1 1 162.7 0zM241.5 306a86 73-56 1 1-95 143.7 86 73-56 1 1 95-143.7z"/><path fill="#bc1142" d="M332.5 302a73 86-34 1 1 95 143.7 73 86-34 1 1-95-143.7zM73 342c36.3-9.7 12.2 150.7-17.4 137.6C23 453.3 12.6 376.6 73 342z"/><path fill="#bc1142" d="M493.7 340c-36.4-9.7-12.3 150.7 17.3 137.6 32.6-26.2 43-103-17.3-137.5zM370 220.7c62.8-10.7 115 26.7 113 94.8-2 26-136.2-91-113-94.8zM196.4 218.7c-63-10.7-115.2 26.7-113 94.8 2 26 136-91 113-95zM286.6 202.8c-37.5-1-73.5 27.8-73.6 44.5 0 20.3 29.7 41 74 41.6 45 .2 73.8-16.7 74-37.7 0-23.7-41-49-74.4-48.5zM289 619c32.6-1.3 76.5 10.7 76.6 26.5.5 15.4-39.8 50.2-79 49.6-40.3 1.8-80-33-79.4-45-.6-18 49.2-31.7 81.7-31zM168 525c23.4 28 34 77.4 14.6 92-18.4 11-63 6.5-94.7-39-21.5-38.4-18.8-77.3-3.7-88.7 22.4-13.7 57 4.8 83.8 35.8zM405 516.2c-25.2 29.5-39.2 83.3-20.8 100.6 17.5 13.5 64.7 11.6 99.5-36.7 25.3-32.4 17-86.6 2.4-101-21.3-16.6-52.2 4.7-81 37.2z"/></svg>
